<svg xmlns="http://www.w3.org/2000/svg" width="20.695" height="12.974" viewBox="0 0 20.695 12.974">
  <path id="behance" d="M8.336,81.213a2.727,2.727,0,0,0,1.739-2.659c0-2.537-1.89-3.155-4.071-3.155H0V88.133H6.173c2.314,0,4.488-1.11,4.488-3.7A3.068,3.068,0,0,0,8.336,81.213ZM2.8,77.574H5.425c1.01,0,1.919.284,1.919,1.455,0,1.081-.708,1.516-1.707,1.516H2.8V77.574Zm2.993,8.4H2.8V82.464h3.05c1.232,0,2.012.514,2.012,1.818C7.861,85.568,6.931,85.971,5.792,85.971Zm12.881-8.648H13.51V76.068h5.163ZM20.7,83.657c0-2.727-1.6-5-4.488-5a4.633,4.633,0,0,0-4.718,4.879,4.491,4.491,0,0,0,4.718,4.84,4.11,4.11,0,0,0,4.315-3.1H18.288a2.1,2.1,0,0,1-2,1.2,2.085,2.085,0,0,1-2.264-2.346h6.651C20.685,83.98,20.7,83.818,20.7,83.657Zm-6.669-1.121a1.979,1.979,0,0,1,2.1-1.969,1.888,1.888,0,0,1,2.019,1.969Z" transform="translate(0 -75.4)" fill="#fff"/>
</svg>
