<svg xmlns="http://www.w3.org/2000/svg" width="18.974" height="18.974" viewBox="0 0 18.974 18.974">
  <path id="dribbble" d="M17.487,8a9.487,9.487,0,1,0,9.487,9.487A9.5,9.5,0,0,0,17.487,8Zm6.273,4.375a8.065,8.065,0,0,1,1.83,5.048,18.937,18.937,0,0,0-5.643-.261c-.22-.537-.428-1.01-.712-1.592a10.794,10.794,0,0,0,4.525-3.2Zm-.9-.937a9.149,9.149,0,0,1-4.247,2.927,43.254,43.254,0,0,0-3.024-4.744A8.082,8.082,0,0,1,22.859,11.438Zm-8.817-1.272a51.706,51.706,0,0,1,3,4.687,30.226,30.226,0,0,1-7.492.987A8.133,8.133,0,0,1,14.042,10.166ZM9.384,17.5c0-.083,0-.165,0-.248A29.892,29.892,0,0,0,17.716,16.1c.232.454.454.915.657,1.375a12.552,12.552,0,0,0-6.906,5.444A8.071,8.071,0,0,1,9.384,17.5Zm3.129,6.393a11.4,11.4,0,0,1,6.411-5.078,33.684,33.684,0,0,1,1.729,6.145A8.087,8.087,0,0,1,12.513,23.892Zm9.5.325a34.975,34.975,0,0,0-1.574-5.778,11.894,11.894,0,0,1,5.048.346A8.118,8.118,0,0,1,22.015,24.217Z" transform="translate(-8 -8)" fill="#fff"/>
</svg>
