<svg xmlns="http://www.w3.org/2000/svg" width="18.978" height="18.974" viewBox="0 0 18.978 18.974">
  <path id="instagram" d="M9.416,36.447a4.865,4.865,0,1,0,4.865,4.865A4.857,4.857,0,0,0,9.416,36.447Zm0,8.027a3.163,3.163,0,1,1,3.163-3.163A3.168,3.168,0,0,1,9.416,44.475Zm6.2-8.226a1.135,1.135,0,1,1-1.135-1.135A1.132,1.132,0,0,1,15.615,36.248ZM18.837,37.4A5.615,5.615,0,0,0,17.3,33.424a5.652,5.652,0,0,0-3.976-1.533c-1.567-.089-6.262-.089-7.828,0A5.644,5.644,0,0,0,1.524,33.42,5.634,5.634,0,0,0-.008,37.4c-.089,1.567-.089,6.262,0,7.828A5.615,5.615,0,0,0,1.524,49.2,5.659,5.659,0,0,0,5.5,50.732c1.567.089,6.262.089,7.828,0A5.615,5.615,0,0,0,17.3,49.2a5.652,5.652,0,0,0,1.533-3.976C18.926,43.658,18.926,38.967,18.837,37.4Zm-2.024,9.505a3.2,3.2,0,0,1-1.8,1.8c-1.249.5-4.213.381-5.593.381s-4.348.11-5.593-.381a3.2,3.2,0,0,1-1.8-1.8c-.5-1.249-.381-4.213-.381-5.593s-.11-4.348.381-5.593a3.2,3.2,0,0,1,1.8-1.8c1.249-.5,4.213-.381,5.593-.381s4.348-.11,5.593.381a3.2,3.2,0,0,1,1.8,1.8c.5,1.249.381,4.213.381,5.593S17.308,45.66,16.813,46.905Z" transform="translate(0.075 -31.825)" fill="#fff"/>
</svg>
