<svg xmlns="http://www.w3.org/2000/svg" xmlns:xlink="http://www.w3.org/1999/xlink" width="168.242" height="205.055" viewBox="0 0 168.242 205.055"><defs><style>.a{fill:coral;}.b{filter:url(#a);}</style><filter id="a" x="0" y="0" width="168.242" height="205.055" filterUnits="userSpaceOnUse"><feOffset dy="3" input="SourceAlpha"/><feGaussianBlur stdDeviation="15" result="b"/><feFlood flood-opacity="0.161"/><feComposite operator="in" in2="b"/><feComposite in="SourceGraphic"/></filter></defs><g class="b" transform="matrix(1, 0, 0, 1, 0, 0)"><path class="a" d="M75.622,115.055A60.5,60.5,0,0,1,56.5,111.98V3.075A60.9,60.9,0,0,1,98.634,4.521,59.042,59.042,0,0,1,117.426,16.85,57.277,57.277,0,0,1,130.1,35.136a56.283,56.283,0,0,1,0,44.784,57.276,57.276,0,0,1-12.67,18.286,59.042,59.042,0,0,1-18.792,12.329A60.158,60.158,0,0,1,75.622,115.055Z" transform="translate(-11.5 42)"/></g></svg>