<svg xmlns="http://www.w3.org/2000/svg" width="19.879" height="16.146" viewBox="0 0 19.879 16.146">
  <path id="twitter" d="M17.836,52.106c.013.177.013.353.013.53A11.513,11.513,0,0,1,6.257,64.228,11.514,11.514,0,0,1,0,62.4a8.43,8.43,0,0,0,.984.05,8.16,8.16,0,0,0,5.058-1.741,4.081,4.081,0,0,1-3.809-2.826A5.139,5.139,0,0,0,3,57.946a4.309,4.309,0,0,0,1.072-.139,4.075,4.075,0,0,1-3.267-4v-.05a4.1,4.1,0,0,0,1.842.517,4.08,4.08,0,0,1-1.261-5.449,11.581,11.581,0,0,0,8.4,4.264,4.6,4.6,0,0,1-.1-.933,4.078,4.078,0,0,1,7.051-2.788,8.021,8.021,0,0,0,2.586-.984,4.063,4.063,0,0,1-1.791,2.245A8.168,8.168,0,0,0,19.879,50,8.758,8.758,0,0,1,17.836,52.106Z" transform="translate(0 -48.082)" fill="#fff"/>
</svg>
